<?xml version="1.0" encoding="utf-8"?>
<!-- Generator: Adobe Illustrator 27.0.1, SVG Export Plug-In . SVG Version: 6.00 Build 0)  -->
<svg version="1.1" id="Layer_1" xmlns="http://www.w3.org/2000/svg" xmlns:xlink="http://www.w3.org/1999/xlink" x="0px" y="0px"
	 viewBox="0 0 528 175" style="enable-background:new 0 0 528 175;" xml:space="preserve">
<style type="text/css">
	.studs0{fill:#E30916;}
	.studs1{fill:#ffffff;}
	.studs2{fill:none;}
</style>
<g>
	<rect x="483.6" y="29.7" class="studs0" width="44.1" height="45.2"/>
	<polygon class="studs1" points="519.6,56.5 509.8,56.5 509.8,66.4 501.4,66.4 501.4,56.5 491.7,56.5 491.7,48 501.4,48 501.4,38.2 
		509.8,38.2 509.8,48 519.6,48 	"/>
</g>
	<g class="studs1" >
		<path d="M70.8,59.4c-2.4-3-5.5-5.5-9.4-7.3s-7.6-2.7-11.2-2.7c-1.8,0-3.7,0.2-5.6,0.5s-3.6,0.9-5.2,1.9c-1.5,0.9-2.8,2.1-3.8,3.6
			S34,58.6,34,61c0,2,0.4,3.6,1.2,4.9c0.8,1.3,2,2.5,3.6,3.4c1.6,1,3.5,1.9,5.6,2.7c2.2,0.8,4.6,1.7,7.3,2.5c3.9,1.3,8,2.7,12.2,4.3
			c4.2,1.6,8.1,3.7,11.6,6.3s6.4,5.9,8.7,9.7c2.3,3.9,3.4,8.7,3.4,14.4c0,6.6-1.2,12.4-3.7,17.2c-2.4,4.8-5.7,8.8-9.9,12
			c-4.1,3.2-8.9,5.5-14.2,7s-10.8,2.3-16.5,2.3c-8.3,0-16.3-1.4-24-4.3s-14.1-7-19.3-12.3l18.3-18.6c2.8,3.5,6.5,6.4,11.2,8.7
			c4.7,2.3,9.2,3.5,13.8,3.5c2.1,0,4.1-0.2,6-0.7c2-0.4,3.7-1.1,5.1-2.1c1.5-1,2.6-2.3,3.5-3.9s1.3-3.6,1.3-5.9c0-2.2-0.5-4-1.6-5.6
			c-1.1-1.5-2.6-2.9-4.6-4.2c-2-1.3-4.5-2.4-7.5-3.4s-6.4-2.1-10.2-3.3c-3.7-1.2-7.3-2.6-10.9-4.2c-3.5-1.6-6.7-3.7-9.5-6.3
			c-2.8-2.5-5-5.7-6.7-9.3c-1.7-3.6-2.5-8.1-2.5-13.3C6,56.2,7.3,50.7,9.9,46.2c2.6-4.6,6-8.3,10.3-11.3c4.2-2.9,9-5.1,14.4-6.4
			c5.3-1.4,10.7-2,16.1-2c6.5,0,13.2,1.2,20,3.6S83.4,36,88.6,40.7L70.8,59.4z"/>
	<g class="studs1" >
		<path d="M163.6,174.1c-12.2,0-23.8-2.1-34.4-6.1c-10.9-4.2-20.5-10.2-28.6-18l9.4-9.8c6.8,6.5,14.9,11.6,24.1,15.1
			c18.1,7,40.8,7,59.1,0c9.3-3.5,17.4-8.6,24.2-15.2l9.4,9.8c-8.1,7.8-17.8,13.9-28.8,18C187.4,172,175.8,174.1,163.6,174.1z
			 M217.3,33.4c-6.8-6.3-15-11.3-24.2-14.7c-18.2-6.6-40.7-6.7-58.8,0c-9.2,3.4-17.3,8.3-24.1,14.6l-9.3-9.9
			c8.1-7.5,17.7-13.4,28.6-17.5c21.2-7.8,47-7.8,68.2,0c11,4,20.7,9.9,28.8,17.5L217.3,33.4z"/>
	</g>
	<path class="studs1"  d="M226.7,86.6c0,9.1-1.6,17.5-4.7,25.1s-7.5,14-13.1,19.4s-12.3,9.5-20,12.5c-7.7,2.9-16.1,4.4-25.1,4.4s-17.4-1.5-25-4.4
		c-7.7-2.9-14.3-7.1-19.9-12.5s-10-11.9-13.1-19.4c-3.2-7.6-4.7-15.9-4.7-25.1s1.6-17.6,4.7-25c3.1-7.5,7.5-13.8,13.1-19
		s12.2-9.2,19.9-12.1c7.7-2.8,16-4.2,25-4.2s17.4,1.4,25.1,4.2c7.7,2.8,14.4,6.9,20,12.1s10,11.6,13.1,19S226.7,77.4,226.7,86.6z
		 M196.8,86.6c0-5-0.8-9.7-2.4-14s-3.9-8.1-6.8-11.2c-2.9-3.1-6.4-5.5-10.5-7.3s-8.6-2.7-13.5-2.7s-9.3,0.9-13.4,2.7
		c-4,1.8-7.5,4.2-10.5,7.3c-2.9,3.1-5.2,6.8-6.8,11.2c-1.6,4.3-2.4,9-2.4,14c0,5.2,0.8,10,2.5,14.4c1.6,4.4,3.9,8.2,6.8,11.3
		c2.9,3.2,6.3,5.6,10.4,7.4c4,1.8,8.5,2.7,13.4,2.7s9.4-0.9,13.4-2.7c4-1.8,7.5-4.3,10.4-7.4c2.9-3.2,5.2-6.9,6.9-11.3
		C196,96.7,196.8,91.9,196.8,86.6z"/>
	<path class="studs1"  d="M245.1,144.9V29.4h28.1v91.2h44.7v24.3H245.1z"/>
	<path class="studs1"  d="M330.9,144.9V29.4H359v115.5H330.9z"/>
	<path class="studs1"  d="M443.9,59.4c-2.4-3-5.5-5.5-9.4-7.3s-7.6-2.7-11.2-2.7c-1.8,0-3.7,0.2-5.6,0.5c-1.9,0.3-3.6,0.9-5.2,1.9
		c-1.5,0.9-2.8,2.1-3.8,3.6s-1.6,3.3-1.6,5.6c0,2,0.4,3.6,1.2,4.9s2,2.5,3.6,3.4c1.6,1,3.5,1.9,5.6,2.7c2.2,0.8,4.6,1.7,7.3,2.5
		c3.9,1.3,8,2.7,12.2,4.3s8.1,3.7,11.6,6.3s6.4,5.9,8.7,9.7c2.3,3.9,3.4,8.7,3.4,14.4c0,6.6-1.2,12.4-3.7,17.2
		c-2.4,4.8-5.7,8.8-9.9,12c-4.1,3.2-8.9,5.5-14.2,7s-10.8,2.3-16.5,2.3c-8.3,0-16.3-1.4-24-4.3s-14.1-7-19.3-12.3l18.3-18.6
		c2.8,3.5,6.5,6.4,11.2,8.7c4.7,2.3,9.2,3.5,13.8,3.5c2.1,0,4.1-0.2,6-0.7c2-0.4,3.7-1.1,5.1-2.1c1.5-1,2.6-2.3,3.5-3.9
		s1.3-3.6,1.3-5.9c0-2.2-0.5-4-1.6-5.6c-1.1-1.5-2.6-2.9-4.6-4.2c-2-1.3-4.5-2.4-7.5-3.4s-6.4-2.1-10.2-3.3
		c-3.7-1.2-7.3-2.6-10.9-4.2c-3.5-1.6-6.7-3.7-9.5-6.3c-2.8-2.5-5-5.7-6.7-9.3c-1.7-3.6-2.5-8.1-2.5-13.3c0-6.4,1.3-11.9,3.9-16.5
		s6-8.3,10.3-11.3c4.2-2.9,9-5.1,14.4-6.4c5.3-1.4,10.7-2,16.1-2c6.5,0,13.2,1.2,20,3.6s12.7,5.9,17.9,10.6L443.9,59.4z"/>
</g>
<rect x="-115.7" y="199.6" class="studs2" width="759.1" height="102.8"/>
</svg>
